	
<svg  version="1.1" width="1280" height="1024"
        viewBox="0 0 1280 1024"
     baseProfile="full"
     text-anchor="middle"
     xlink:href="imagefilehere.svg"
     xmlns="http://www.w3.org/2000/svg"
     xmlns:xlink="http://www.w3.org/1999/xlink"
     xmlns:ev="http://www.w3.org/2001/xml-events">
	<symbol id="reg" viewBox="0 0 15 9">
		<g>

			<path d="M8.0853 8.66685L14.7604 1.99166C14.9149 1.83727 15 1.63118 15 1.41142C15 1.19167 14.9149 0.985572 14.7604 0.831183L14.2689 0.339602C13.9487 0.0197263 13.4282 0.0197262 13.1084 0.339602L7.50311 5.94492L1.89157 0.333382C1.73706 0.178993 1.53109 0.0937494 1.31146 0.0937494C1.09158 0.0937494 0.885606 0.178993 0.730973 0.333382L0.239635 0.824963C0.0851249 0.979474 3.76698e-06 1.18545 3.75737e-06 1.4052C3.74777e-06 1.62496 0.0851249 1.83105 0.239635 1.98544L6.9208 8.66685C7.0758 8.82161 7.28275 8.90661 7.50275 8.90612C7.7236 8.90661 7.93042 8.82161 8.0853 8.66685Z"/>

		</g>
	</symbol>

<symbol id='live' viewBox="0 0 46 42">
        <g>
                <path d="M33.7812 0.695312C31.2851 0.695312 28.9966 1.4863 26.9794 3.04634C25.0456 4.54197 23.758 6.44693 23 7.83214C22.242 6.44684 20.9544 4.54197 19.0206 3.04634C17.0034 1.4863 14.7149 0.695312 12.2188 0.695312C5.25298 0.695312 0 6.39293 0 13.9485C0 22.1112 6.55347 27.696 16.4746 36.1505C18.1593 37.5863 20.0689 39.2138 22.0538 40.9494C22.3154 41.1785 22.6514 41.3047 23 41.3047C23.3486 41.3047 23.6846 41.1785 23.9462 40.9495C25.9312 39.2136 27.8408 37.5862 29.5265 36.1496C39.4465 27.696 46 22.1112 46 13.9485C46 6.39293 40.747 0.695312 33.7812 0.695312Z" fill="#fff" fill-opacity="0.5"/>
        </g>


</symbol>


<symbol id='up' width="18" height="12" viewBox="0 0 18 12">

        <g>
        
                <path d="M8.29764 0.999386L0.287559 9.00962C0.102145 9.19488 -8.06437e-08 9.4422 -6.91167e-08 9.7059C-5.75898e-08 9.96961 0.102145 10.2169 0.287559 10.4022L0.87731 10.9921C1.2616 11.3759 1.88618 11.3759 2.26988 10.9921L8.99627 4.2657L15.7301 10.9996C15.9155 11.1848 16.1627 11.2871 16.4263 11.2871C16.6901 11.2871 16.9373 11.1848 17.1228 10.9995L17.7124 10.4097C17.8979 10.2242 18 9.97707 18 9.71337C18 9.44966 17.8979 9.20234 17.7124 9.01708L9.69504 0.999386C9.50904 0.813681 9.26071 0.711682 8.99671 0.712267C8.73169 0.711682 8.48349 0.813681 8.29764 0.999386Z" fill="#fff"/>
        
        </g>


</symbol>
<symbol id='close' viewBox="0 0 24 24">
        <g>
                <path d="M23.954 21.03l-9.184-9.095 9.092-9.174-2.832-2.807-9.09 9.179-9.176-9.088-2.81 2.81 9.186 9.105-9.095 9.184 2.81 2.81 9.112-9.192 9.18 9.1z"/>
        </g>

</symbol>


        
</svg>	

